<svg xmlns="http://www.w3.org/2000/svg" xmlns:xlink="http://www.w3.org/1999/xlink" viewBox="0,0,256,256" width="24px" height="24px" fill-rule="nonzero"><g fill="#eeeeee" fill-rule="nonzero" stroke="none" stroke-width="1" stroke-linecap="butt" stroke-linejoin="miter" stroke-miterlimit="10" stroke-dasharray="" stroke-dashoffset="0" font-family="none" font-weight="none" font-size="none" text-anchor="none" style="mix-blend-mode: normal"><g transform="scale(10.66667,10.66667)"><path d="M12,0c-6.07422,0 -11,4.47656 -11,10c0,5.52344 4.92578,10 11,10v4c0,0 11,-5.35937 11,-14c0,-5.52344 -4.92578,-10 -11,-10zM13.22266,15.125h-2.44531v-6.96484h2.44531zM12.00391,6.19922c-1.32422,0 -1.33203,-0.97656 -1.33203,-1.20312c0,-0.23047 0,-1.19531 1.33203,-1.19531c1.33594,0 1.33203,0.96484 1.33203,1.19531c0,0.22656 -0.00781,1.20313 -1.33203,1.20313z"></path></g></g></svg>